<?xml version="1.0" standalone="no"?>
<!DOCTYPE svg PUBLIC "-//W3C//DTD SVG 20010904//EN"
 "http://www.w3.org/TR/2001/REC-SVG-20010904/DTD/svg10.dtd">
<svg version="1.0" xmlns="http://www.w3.org/2000/svg"
 width="260.000000pt" height="260.000000pt" viewBox="0 0 260.000000 260.000000"
 preserveAspectRatio="xMidYMid meet">
<metadata>
Created by potrace 1.14, written by Peter Selinger 2001-2017
</metadata>
<g transform="translate(0.000000,260.000000) scale(0.100000,-0.100000)"
fill="#000000" stroke="none">
<path d="M880 2167 c-14 -7 -36 -33 -50 -57 -22 -39 -25 -60 -28 -160 -4 -113
16 -313 38 -392 14 -49 46 -54 36 -6 -18 91 -28 231 -24 366 3 130 5 153 22
171 27 30 89 29 121 -3 39 -39 48 -95 49 -308 1 -109 3 -198 6 -198 3 0 12 5
20 10 12 8 15 41 15 192 0 101 -4 208 -8 239 -9 64 -48 132 -84 148 -32 15
-82 14 -113 -2z"/>
<path d="M1524 2146 c-22 -21 -33 -40 -28 -47 4 -7 3 -10 -3 -6 -18 11 -24
-32 -30 -234 -6 -205 -1 -269 21 -269 11 0 15 43 18 213 3 204 4 214 28 257
25 44 27 45 74 45 42 0 52 -4 70 -28 20 -27 21 -40 20 -205 -1 -98 -4 -193 -8
-212 -18 -104 -19 -140 -3 -140 10 0 18 16 25 53 6 28 12 61 15 72 3 12 11 90
18 174 10 121 10 165 0 212 -22 109 -61 149 -142 149 -32 0 -47 -7 -75 -34z"/>
<path d="M815 1165 c-69 -37 -109 -98 -121 -182 -5 -40 -11 -53 -30 -62 -35
-15 -31 -41 6 -41 19 0 33 -7 40 -20 6 -11 18 -20 26 -20 13 0 14 11 8 69 -4
44 -2 81 5 104 15 43 82 107 114 107 12 0 17 -4 12 -8 -38 -26 -55 -67 -55
-129 0 -77 19 -122 61 -147 39 -23 105 -24 147 -2 95 49 95 249 1 317 -44 31
-167 39 -214 14z m135 -129 c0 -21 -27 -38 -50 -31 -25 8 -28 52 -2 58 23 5
52 -10 52 -27z m63 -80 c7 -19 -18 -40 -38 -32 -15 6 -20 28 -8 39 12 12 41 7
46 -7z"/>
<path d="M1544 1166 c-107 -48 -138 -211 -58 -305 49 -59 154 -60 206 -3 48
55 50 157 3 226 -29 42 -16 46 36 11 53 -38 73 -88 67 -175 -6 -77 4 -97 33
-62 9 12 29 22 43 22 34 0 34 27 1 42 -21 9 -25 18 -25 53 0 59 -42 136 -92
171 -34 24 -53 29 -112 32 -45 1 -82 -3 -102 -12z m31 -136 c0 -18 -6 -26 -23
-28 -24 -4 -38 18 -28 44 3 9 15 14 28 12 17 -2 23 -10 23 -28z m73 -83 c2 -9
-4 -20 -12 -23 -21 -8 -46 13 -39 32 8 20 47 13 51 -9z"/>
<path d="M1074 718 c-19 -30 97 -68 205 -68 83 1 167 25 185 52 18 30 -3 33
-50 8 -39 -22 -58 -25 -142 -25 -83 0 -103 3 -135 23 -43 25 -53 27 -63 10z"/>
</g>
</svg>
